<?xml version="1.0" standalone="no"?><!DOCTYPE svg PUBLIC "-//W3C//DTD SVG 1.1//EN" "http://www.w3.org/Graphics/SVG/1.1/DTD/svg11.dtd"><svg t="1627541044343" class="icon" viewBox="0 0 1024 1024" version="1.1" xmlns="http://www.w3.org/2000/svg" p-id="2590" xmlns:xlink="http://www.w3.org/1999/xlink" width="32" height="32"><defs><style type="text/css">@font-face { font-family: feedback-iconfont; src: url("//at.alicdn.com/t/font_1031158_1uhr8ri0pk5.eot?#iefix") format("embedded-opentype"), url("//at.alicdn.com/t/font_1031158_1uhr8ri0pk5.woff2") format("woff2"), url("//at.alicdn.com/t/font_1031158_1uhr8ri0pk5.woff") format("woff"), url("//at.alicdn.com/t/font_1031158_1uhr8ri0pk5.ttf") format("truetype"), url("//at.alicdn.com/t/font_1031158_1uhr8ri0pk5.svg#iconfont") format("svg"); }
</style></defs><path d="M914.2 404.6c-15.8 0-30.9 3.4-44.5 9.4L617.4 164c6.7-14.7 10.5-31 10.5-48.1C627.9 51.9 576 0 512 0S396.1 51.9 396.1 115.9c0 17.2 3.7 33.5 10.5 48.1L154.3 414c-13.6-6-28.7-9.4-44.5-9.4C49.1 404.6 0 453.7 0 514.4 0 575 49.1 624.1 109.8 624.1c60.6 0 109.8-49.1 109.8-109.8 0-15.5-3.2-30.2-9-43.5l252.3-249.9c3.3 1.5 6.7 2.9 10.1 4.2v184.3c-41.4 15.7-70.8 55.7-70.8 102.6 0 22.8 6.9 43.9 18.8 61.4l-180.1 261c-5.3-0.9-10.8-1.4-16.3-1.4-52.7 0-95.5 42.7-95.5 95.5s42.7 95.5 95.5 95.5c52.7 0 95.5-42.7 95.5-95.5 0-17.8-4.9-34.4-13.3-48.6l180.1-261a110 110 0 0 0 25.2 2.9c8.7 0 17.2-1 25.3-2.9L717.9 880c-8.4 14.2-13.3 30.8-13.3 48.5 0 52.7 42.7 95.5 95.5 95.5 52.7 0 95.5-42.7 95.5-95.5S852.9 833 800.1 833c-5.6 0-11.1 0.5-16.4 1.4L603.1 573.3c11.8-17.5 18.7-38.6 18.7-61.3 0-46.1-28.5-85.6-68.8-101.9V224.3c2.8-1 5.5-2.2 8.1-3.4l252.3 249.9c-5.8 13.4-9 28.1-9 43.5 0 60.6 49.1 109.8 109.8 109.8 60.6 0 109.8-49.1 109.8-109.8 0-60.6-49.1-109.7-109.8-109.7z" fill="#8470FF" p-id="2591"></path></svg>