<?xml version="1.0" standalone="no"?><!DOCTYPE svg PUBLIC "-//W3C//DTD SVG 1.1//EN" "http://www.w3.org/Graphics/SVG/1.1/DTD/svg11.dtd"><svg t="1621564517126" class="icon" viewBox="0 0 1024 1024" version="1.1" xmlns="http://www.w3.org/2000/svg" p-id="1155" xmlns:xlink="http://www.w3.org/1999/xlink" width="200" height="200"><defs><style type="text/css"></style></defs><path d="M304.396738 488.022416l158.722997 92.296866c10.163075 5.910228 16.411973 16.753639 16.411972 28.478189v185.209132c0 11.72455-6.248898 22.567961-16.411972 28.47719l-158.722997 92.297866a33.190587 33.190587 0 0 1-33.355427 0l-158.722997-92.297866C102.155239 816.574564 95.906341 805.731153 95.906341 794.006603v-185.209132c0-11.72455 6.248898-22.567961 16.411973-28.478189L271.041311 488.023415a33.190587 33.190587 0 0 1 33.355427 0z m447.562926 0l158.722997 92.296866c10.163075 5.910228 16.411973 16.753639 16.411973 28.478189v185.209132c0 11.72455-6.248898 22.567961-16.411973 28.47719l-158.722997 92.297866a33.190587 33.190587 0 0 1-33.355426 0l-158.722997-92.297866C549.718166 816.574564 543.469268 805.731153 543.469268 794.006603v-185.209132c0-11.72455 6.248898-22.567961 16.411973-28.478189L718.604238 488.023415a33.190587 33.190587 0 0 1 33.355426 0zM287.719024 561.53063l-119.882926 69.711922v140.317971l119.882926 69.711922 119.882927-69.712921V631.243551l-119.882927-69.712921z m447.562927 0l-119.882927 69.711922v140.317971l119.882927 69.711922 119.882927-69.712921V631.243551l-119.882927-69.712921z m-207.10375-453.137483l158.722997 92.296867c10.163075 5.910228 16.411973 16.753639 16.411973 28.478189v185.209132c0 11.72455-6.248898 22.567961-16.411973 28.47719l-158.722997 92.297865a33.190587 33.190587 0 0 1-33.355426 0l-158.722997-92.297865C325.936702 436.945296 319.687805 426.101885 319.687805 414.377335v-185.209132c0-11.72455 6.248898-22.567961 16.411973-28.478189L494.822775 108.394146a33.190587 33.190587 0 0 1 33.355426 0z m-16.678712 73.508215L391.617561 251.613284v140.317971l119.882927 69.711922 119.882927-69.712921V251.614283l-119.883926-69.712921z" fill="#8470FF" p-id="1156"></path></svg>