<?xml version="1.0" standalone="no"?><!DOCTYPE svg PUBLIC "-//W3C//DTD SVG 1.1//EN" "http://www.w3.org/Graphics/SVG/1.1/DTD/svg11.dtd"><svg t="1627543971256" class="icon" viewBox="0 0 1024 1024" version="1.1" xmlns="http://www.w3.org/2000/svg" p-id="1381" xmlns:xlink="http://www.w3.org/1999/xlink" width="32" height="32"><defs><style type="text/css">@font-face { font-family: feedback-iconfont; src: url("//at.alicdn.com/t/font_1031158_1uhr8ri0pk5.eot?#iefix") format("embedded-opentype"), url("//at.alicdn.com/t/font_1031158_1uhr8ri0pk5.woff2") format("woff2"), url("//at.alicdn.com/t/font_1031158_1uhr8ri0pk5.woff") format("woff"), url("//at.alicdn.com/t/font_1031158_1uhr8ri0pk5.ttf") format("truetype"), url("//at.alicdn.com/t/font_1031158_1uhr8ri0pk5.svg#iconfont") format("svg"); }
</style></defs><path d="M891.392 699.904h-110.08V221.696c0-44.032-35.84-90.112-80.384-90.624H259.072c-44.032 0-79.872 46.08-80.384 90.624v88.576c0 9.216 7.68 16.896 16.896 16.896h30.72v187.904c0 9.216 23.04 16.896 32.256 16.896s27.136-7.68 27.136-16.896V327.168h351.744c9.216 0 16.896-7.68 16.896-16.896V236.544c0-19.456 15.36-36.352 34.816-36.352 26.112-0.512 28.672 19.968 28.672 45.568v549.376c0 16.384 5.12 37.888 14.336 51.2l-407.552 1.536c-9.216 0-21.504 22.016-21.504 31.232 0 8.192 7.168 28.16 16.384 28.16h523.776c44.032 0 64.512-76.8 65.024-121.344V716.8c0-9.216-7.68-16.896-16.896-16.896z m-293.376-478.208v49.152H229.888v-49.152c0-17.92 18.432-31.744 41.472-31.744h338.944c-8.192 9.216-12.8 20.48-12.288 31.744z m254.464 574.976c0 19.456-15.872 46.08-35.84 46.08s-35.84-26.112-35.84-45.568v-52.736h71.168v52.224z" fill="#8470FF" p-id="1382"></path><path d="M223.232 560.64c-79.36 0-143.872 64.512-143.872 143.872s64.512 143.872 143.872 143.872 143.872-64.512 143.872-143.872-64.512-143.872-143.872-143.872z m0 246.272c-59.392 0-107.52-46.08-107.52-102.4s48.128-102.4 107.52-102.4 107.52 46.08 107.52 102.4-48.128 102.4-107.52 102.4z" fill="#8470FF" p-id="1383"></path><path d="M267.776 623.104l-140.288 106.496 73.728 7.168 43.52 59.904 23.04-173.568zM626.688 461.824H496.64c-14.336 0-25.6-11.264-25.6-25.6s11.264-25.6 25.6-25.6h130.048c14.336 0 25.6 11.264 25.6 25.6s-11.776 25.6-25.6 25.6zM626.688 552.448H404.992c-14.336 0-25.6-11.264-25.6-25.6s11.264-25.6 25.6-25.6h221.696c14.336 0 25.6 11.264 25.6 25.6s-11.776 25.6-25.6 25.6zM626.688 643.072H404.992c-14.336 0-25.6-11.264-25.6-25.6s11.264-25.6 25.6-25.6h221.696c14.336 0 25.6 11.264 25.6 25.6s-11.776 25.6-25.6 25.6zM626.688 733.696h-54.272c-14.336 0-25.6-11.264-25.6-25.6s11.264-25.6 25.6-25.6h54.272c14.336 0 25.6 11.264 25.6 25.6s-11.776 25.6-25.6 25.6z" fill="#8470FF" p-id="1384"></path></svg>