<?xml version="1.0" standalone="no"?><!DOCTYPE svg PUBLIC "-//W3C//DTD SVG 1.1//EN" "http://www.w3.org/Graphics/SVG/1.1/DTD/svg11.dtd"><svg t="1594801867877" class="icon" viewBox="0 0 1371 1024" version="1.1" xmlns="http://www.w3.org/2000/svg" p-id="1218" xmlns:xlink="http://www.w3.org/1999/xlink" width="267.7734375" height="200"><defs><style type="text/css"></style></defs><path d="M674.723604 25.943012c7.762149 0 7.762149 0 7.762149 7.803658 0 0 0 7.762149-7.803658 7.76215-46.655913 23.369465-62.263229 38.935273-85.591186 85.632694l-7.803658 7.76215c-7.762149 0-7.762149 0-7.762149-7.803659 0-15.524299 7.803658-31.131615 15.565807-38.893763-7.803658 0-7.803658 0-7.803658-7.803659 0-15.565807 7.803658-31.131615 15.607316-38.893763 7.762149-7.803658 15.524299-7.803658 31.131615-15.565808 0 0 7.762149 0 7.762149 7.803658 7.803658 0 23.369465-7.803658 38.935273-7.803658z m163.420222 7.803658c46.697422 0 85.632695 23.327957 124.526459 54.459572 31.131615 23.369465 54.50108 46.697422 77.829037 62.263229 15.565807 7.803658 31.131615 15.565807 38.935272 31.131614 15.565807 15.565807 23.327957 31.131615 31.131615 54.501081 7.762149 0 15.565807-7.803658 23.327957-15.565808 7.803658-7.803658 15.565807-23.369465 31.131614-38.935273h54.50108c15.565807 7.803658 23.327957 15.565807 31.131615 23.369466 31.131615 62.263229 38.893764 155.658073 38.893764 217.921302-7.803658 70.025379-38.935273 140.050757-101.198502 178.98603-38.893764 23.369465-101.156993 23.369465-147.854415 15.565808 0 7.803658-7.803658 15.565807-7.803658 23.369465-7.762149 38.893764-46.697422 62.263229-85.591186 62.263229-15.565807 0-31.131615 0-38.935273-7.803658-15.565807-7.803658-23.327957-15.565807-31.131615-23.369465l-23.327956-23.327957c7.803658 15.565807 15.565807 31.131615 15.565807 46.697422 7.803658 15.565807 15.565807 31.131615 15.565807 54.50108v54.459572c7.803658 15.565807 7.803658 23.369465 7.803658 38.935272s-7.803658 31.131615-15.565807 38.893764H744.748982c-7.803658 0-7.803658 0-15.565807-7.803658-7.803658 7.803658-15.565807 15.565807-31.131615 23.369466-7.803658 7.803658-7.803658 7.803658-15.565807 7.803658l-7.803658 7.762149c-7.762149 7.803658-7.762149 15.565807-7.762149 15.565807-7.803658 7.803658-7.803658 15.565807-23.369466 15.565808-23.327957 15.565807-54.459571 15.565807-70.025378 0-15.565807-7.803658-31.131615-31.131615-46.697422-54.501081 0-7.762149-15.565807-23.327957-23.369466-46.697422 0-7.762149-7.762149-23.327957 0-31.131614 0-7.762149 7.803658-15.565807 15.607317-23.327957h7.762149-62.26323v23.369466c0 7.762149-7.803658 15.565807-7.803658 23.327956-7.762149 7.803658-7.762149 15.565807-15.524298 31.131615V913.19403c0 15.565807-15.607316 23.369465-23.369466 23.369465-7.803658 7.762149-23.369465 7.762149-38.935272 0-23.327957 0-54.459571-7.803658-62.26323-15.565807C301.144228 913.19403 277.774763 913.19403 262.208955 897.628223c-7.803658-7.803658-15.565807-15.565807-15.565807-23.369466v-31.131615c0-7.762149 7.803658-15.565807 7.803658-15.565807-15.565807 0-31.131615 0-46.697422-7.762149-15.607316-7.803658-38.935273-23.369465-46.738931-31.131615-31.131615-15.565807-38.893764-38.935273-46.655913-62.263229v-23.369465c0-7.762149 7.762149-7.762149 15.565807-15.565808L168.814111 648.616814c7.803658-15.565807 7.803658-23.369465 15.565808-38.935273 0-7.762149 0-15.524299-7.803658-31.131614v-93.394844c-7.762149 7.803658-15.524299 7.803658-23.327957 7.803658-15.565807-7.803658-23.369465-15.565807-31.131615-31.131615 0-7.803658-7.803658-15.565807-7.803658-31.131614-15.565807-7.803658-15.565807-23.369465-15.565807-38.935273 0-15.524299 7.803658-31.131615 23.369465-38.893764 7.803658-15.565807 23.369465-23.369465 31.131615-31.131615 15.565807-7.803658 23.369465-15.565807 31.131615-15.565807 7.803658 0 7.803658 0 7.803658 7.803658 0 7.762149-7.803658 15.565807-7.803658 23.327957 15.565807 7.803658 15.565807 15.565807 15.565807 23.369465v31.131615l-7.803658 7.762149h-7.762149c0-7.803658-7.803658-7.803658-7.803658-7.803658v15.607316c0 7.762149-7.762149 15.524299-15.524299 23.327957H168.814111c15.565807-7.803658 31.131615-23.369465 46.697422-38.935273 15.565807-31.131615 31.131615-54.459571 62.26323-77.787528 62.263229-54.50108 124.526459-77.829037 225.72496-93.394844 7.762149-15.565807 23.327957-23.369465 38.893764-38.935273s38.935273-23.369465 54.50108-23.369465c31.131615-38.893764 54.459571-70.025379 108.919143-93.394844a296.497498 296.497498 0 0 1 132.330116-31.131615z m0 38.893764c-38.935273 0-77.829037 7.803658-132.330116 31.131615-31.131615 15.565807-46.655913 31.131615-62.26323 54.50108h62.26323c7.803658 0 7.803658 0 7.803658 7.762149 0 0 0 7.803658-7.803658 7.803658-31.131615 0-54.459571 7.762149-85.591186 7.762149-15.565807 0-23.369465 0-31.131615 7.803659-7.803658 0-15.565807 7.762149-23.369465 15.565807-46.655913 46.697422-77.787528 93.394844-116.722801 132.288608C425.629178 360.628624 417.867028 383.956581 402.301221 415.088195c-7.803658 7.803658-7.803658 15.565807-7.803658 23.369466 0 7.762149 7.803658 15.524299 15.607316 23.327956 7.762149 23.369465 23.327957 38.935273 31.131615 54.50108 15.524299-23.369465 38.893764-46.738931 62.263229-77.870545h7.762149c0-7.762149 0 0 0 0-23.369465 38.935273-38.935273 70.066887-54.50108 101.198502-7.762149 23.369465-15.524299 31.131615-15.524298 46.697422 15.524299 23.369465 31.131615 31.131615 46.655913 38.935273 15.607316 7.762149 38.935273 7.762149 54.50108-7.803658 38.935273-23.369465 85.632695-54.50108 132.330117-54.50108 15.524299-38.893764 15.524299-93.394844 7.762149-147.854416-7.803658-38.935273-7.803658-77.829037 0-124.526458l7.803658-7.803658c7.762149 0 7.762149 0 7.762149 7.803658 0 38.935273 7.803658 77.829037 15.565808 124.526458 15.565807 62.263229 15.565807 116.764309-7.803658 179.027539l-7.76215 7.762149c-54.50108 0-93.394844 31.131615-147.895924 54.50108-23.327957 15.524299-46.655913 15.524299-70.025378 7.76215-31.131615-7.803658-46.697422-23.369465-70.066888-54.50108V601.877883c0-23.369465 7.803658-31.131615 15.607317-46.697422-23.369465-31.131615-31.131615-38.935273-46.738931-70.066887-15.524299-15.524299-23.327957-31.131615-23.327957-46.655913 0-7.803658 0-23.369465 15.565808-46.738931 15.565807-23.327957 23.369465-54.459571 46.697421-77.787528 15.565807-15.565807 31.131615-31.131615 38.935273-46.697422-62.263229 7.762149-109.00216 31.131615-155.658073 70.025379-38.935273 31.131615-62.263229 77.829037-77.829037 124.526458-15.565807 31.131615-15.565807 62.263229-15.565807 116.76431 7.762149 62.263229 38.893764 140.050757 77.787528 194.551837v7.803658c-7.762149 31.131615-7.762149 62.263229-23.327957 85.591186v7.803658l7.803658 7.762149c7.762149 7.803658 23.327957 7.803658 38.893764 15.565808 7.803658 0 31.131615 7.803658 46.697422 7.803658h23.369466c7.762149 0 7.762149 0 7.762149-7.803658v-38.935273c15.565807-23.327957 15.565807-23.327957 23.369465-38.893764 23.327957-7.803658 23.327957-15.565807 23.327957-31.131615v-77.829036c0-7.803658 0-7.803658 7.803658-7.803658 0 0 7.762149 0 7.762149 7.803658s7.803658 23.369465 7.803658 38.935272a334.976174 334.976174 0 0 0 124.526459 0v-7.803658c0-15.565807 7.762149-23.369465 15.524298-31.131614l7.803658-7.803658c7.803658 0 7.803658 0 7.803658 7.803658V788.667571c0 7.803658 0 7.803658-7.803658 7.803658 0 0-7.803658 0-7.803658-7.803658l-7.762149-7.803658c-15.565807 7.803658-31.131615 15.565807-46.697422 31.131615l-7.803658 7.803658v15.565807c7.803658 15.565807 15.607316 23.369465 15.607316 31.131615 7.762149 15.565807 23.327957 31.131615 31.131615 38.935273 7.762149 7.762149 23.327957 15.565807 38.893764 7.762149 7.803658-7.803658 15.565807-15.565807 23.369465-31.131615 0 0 7.762149-7.803658 15.524299-7.803658 7.803658-7.762149 15.607316-15.565807 23.369465-15.565807 7.803658-7.762149 15.565807-15.565807 23.369465-15.565808 7.762149-7.762149 7.762149-7.762149 15.524299-7.762149l7.803658-7.803658 7.803658-7.762149c7.762149-15.565807 15.565807-23.369465 23.327957-31.131615 7.803658-7.803658 15.565807-23.369465 15.565807-31.131614 7.803658-7.803658 7.803658-15.565807 7.803658-23.369466 15.565807-38.893764 23.327957-70.025379 31.131615-108.960651-23.369465-15.524299-38.935273-23.327957-62.26323-46.655913v-7.803658c0-7.803658 0-7.803658 7.76215-7.803658h7.803658c31.131615 23.369465 54.459571 31.131615 85.591186 38.935272l31.131614 31.131615 23.369466 23.369465h-7.803658c-7.803658-7.803658-7.803658-15.607316-7.803658-23.369465 0-15.565807 7.803658-31.131615 7.803658-46.697422 7.803658-15.565807 0-31.131615 0-46.697422l-7.803658 7.803658c0 7.762149-7.762149 15.524299-15.565808 31.131615l-7.762149 7.762149c-7.803658 0-7.803658 0-7.803658-7.803658 0-7.762149 0-15.524299 7.803658-23.327957 0-7.803658 0-15.565807 7.803658-23.369465 7.762149-7.762149 15.565807-7.762149 23.327957-7.762149 7.803658 0 15.565807 0 23.369465-7.803658 7.762149 0 7.762149 0 7.762149 7.803658v7.803658c-7.803658 0-15.565807 7.762149-23.369465 7.762149 15.565807 7.803658 23.369465 15.565807 38.935273 15.565807 70.066887 23.369465 140.092266 46.697422 210.159153 7.803658 46.697422-31.131615 77.829037-93.394844 85.591186-147.895924 7.803658-54.50108-7.803658-132.330117-23.369466-186.789688 0 0 0-7.803658-7.762149-7.803658-7.803658 31.131615-23.369465 54.50108-62.263229 62.26323h-23.369466c-7.762149 0-7.762149 0-15.565807-7.76215v7.803659a132.620678 132.620678 0 0 1 0 77.829036c-7.762149 23.327957-7.762149 46.655913-23.327956 70.025379h-7.803659c-7.762149 0-7.762149 0-7.762149-7.803658 0-7.762149 7.803658-38.893764 7.803658-62.26323v-31.131614s-7.803658 0-7.803658 7.803658c-7.803658 0-7.803658 7.762149-7.803658 7.762149-7.762149 23.369465-7.762149 38.935273-23.327956 62.263229l-7.803658 7.803658c-7.762149 0-7.762149 0-7.76215-7.803658 7.803658-7.762149 7.803658-23.327957 7.803658-31.131614 0-7.762149 0-23.327957 7.76215-38.893764-7.803658 0-7.803658 7.762149-15.565808 15.565807-7.803658 7.762149-7.803658 23.327957-23.369465 38.893764h-7.762149c-7.803658 0-7.803658 0-7.803658-7.762149v-7.803658c7.803658-15.565807 7.803658-31.131615 15.565807-46.655914 7.803658-15.607316 15.565807-23.369465 38.935273-31.131614h15.565807-31.131615c-7.803658 0-7.803658 0-7.803658-7.803658 0 0 0-7.803658 7.803658-7.803658h7.803658c0-7.762149-7.803658-7.762149 0-15.565808h-15.565807l-7.803658-7.762149s0-7.803658 7.803658-7.803658c7.762149 0 23.327957-7.762149 31.131615-7.762149 7.762149 0 15.565807-7.803658 23.327956-7.803658h7.803658c-7.803658-7.762149-7.803658-15.565807-15.565807-31.131615-7.803658-7.762149-15.565807-7.762149-31.131615-23.327957 0 0-7.803658 0-7.803658-7.803658h-31.131614c-7.803658 0-7.803658 0-7.803658-7.762149 0 0 0-7.803658 7.803658-7.803658h7.803658c-15.565807-15.524299-31.131615-23.327957-46.697422-38.893764-38.935273-31.131615-77.829037-46.697422-116.76431-46.697422z m23.369466 124.526459c7.762149 0 7.762149 0 7.762149 7.803658 0 0 0 7.762149-7.803658 7.762149-38.893764 15.565807-46.697422 38.935273-54.459571 70.066888L799.208554 290.561737S791.446404 290.561737 791.446404 282.758079c0-15.565807 0-38.893764 7.803658-54.459572 7.762149-15.565807 31.131615-23.369465 62.26323-31.131614z m-171.223881 0c7.762149 0 7.762149 0 7.762149 7.803658 0 0 0 7.762149-7.803658 7.762149-15.524299 7.803658-31.131615 15.565807-54.459571 23.369466-15.565807 23.327957-23.369465 31.131615-23.369465 62.263229l-7.76215 7.762149s-7.803658 0-7.803658-7.803658c-7.762149-15.565807-7.762149-23.327957-7.762149-38.893764-7.803658 15.565807-7.803658 23.369465-15.565807 38.935273-7.803658 23.327957-23.369465 38.893764-23.369466 54.459571L542.393487 360.628624c-7.803658 0-7.803658 0-7.803658-7.803658 0-15.565807 7.803658-38.935273 15.607316-62.263229 7.762149-31.131615 23.327957-54.50108 31.131615-62.26323 7.762149-7.803658 15.524299-15.565807 23.327956-15.565807h23.369466c15.524299-7.803658 38.893764-7.803658 62.263229-15.565807z m513.630133 15.565807c-15.565807 15.565807-23.327957 31.131615-38.893764 46.697422-7.803658 7.803658-15.565807 7.803658-15.565807 7.803658h7.803658C1165.02578 267.23378 1165.02578 259.430122 1165.02578 259.430122c15.565807-15.565807 31.131615-23.369465 38.935273-46.697422z m-272.380874 54.50108c7.803658 0 7.803658 0 7.803658 7.762149v7.803659S931.53867 290.561737 923.776521 290.561737l15.565807 15.565807v7.803658c7.762149 0 23.327957-7.803658 31.131615-7.803658 7.762149 0 7.762149 0 7.762149 7.803658 0 0 0 7.762149-7.803658 7.762149-38.893764 7.803658-70.025379 31.131615-101.156993 62.26323h-7.803658c-7.762149 0-7.762149 0-7.762149-7.803658 0-7.762149 7.803658-15.524299 7.803658-15.524299l-15.565808-15.607316v-7.762149c-7.803658 7.803658-15.565807 7.803658-23.369465 15.565807-7.803658 0-7.803658 0-7.803658-7.803658v-7.762149l23.369465-23.369466c7.803658-7.762149 15.565807-23.327957 23.369466-23.327956 7.762149-7.803658 23.327957-7.803658 31.131614-7.803658 23.327957-7.762149 31.131615-15.565807 38.893764-15.565808z m-809.421981 31.131615c7.803658 0 7.803658 0 7.803658 7.762149v7.803658C90.985075 352.824966 75.419267 376.194431 75.419267 430.612494l-7.803658 7.803658s-7.762149 0-7.762149-7.803658v-38.935273C52.049802 391.760239 44.287653 383.956581 44.287653 383.956581v-38.935273c7.803658-7.762149 15.565807-15.524299 31.131614-23.327957h7.803658s7.762149 0 7.76215 7.803658c0-15.565807 15.565807-23.369465 31.131614-31.131614-7.803658 0 0 0 0 0z m965.080055 7.762149h-7.803659 7.803659z m-933.94844 54.50108c-7.803658 7.762149-15.565807 15.524299-15.565807 23.327957-7.803658 0-7.803658 7.803658-7.803658 15.565807 0 7.803658 0 15.565807 7.803658 23.369465 7.803658-7.803658 15.565807-15.607316 15.565807-31.131614v-31.131615z m38.935273 93.394844c-7.803658 0-7.803658 0 0 0-15.607316 0-23.369465 7.762149-31.131615 7.762149-7.803658 0-7.803658 0-15.607316-7.803658 0 7.803658 7.803658 7.803658 15.607316 7.803658 7.762149 0 15.524299 0 31.131615-7.803658-7.803658 0-7.803658 0 0 0-7.803658 0 0 0 0 0zM978.236092 648.575305c7.803658 7.803658 15.565807 0 15.565808-7.803658 0 7.803658-7.803658 7.803658-15.565808 7.803658zM199.945726 664.141113c0 7.803658 0 7.803658 0 0-15.565807 15.565807-23.369465 31.131615-38.935273 38.935272l-7.762149 7.76215v7.803658c0 15.565807 15.565807 31.131615 23.369465 46.697422 7.762149 7.762149 23.327957 15.565807 38.893764 23.327956 7.803658 0 15.565807 7.803658 23.369466 7.803658 7.762149 0 7.762149 0 15.565807-7.803658 0 0 0-7.803658 7.762149-15.565807-31.131615-23.369465-46.697422-62.263229-62.263229-108.960651z m638.1981 38.935272c-7.803658 15.565807-7.803658 31.131615-15.565807 46.697422-7.803658 15.565807-15.565807 38.893764-31.131615 54.459572-7.803658 15.565807-23.369465 31.131615-31.131614 38.935272h93.394844s7.803658-7.803658 7.803658-15.565807c0-15.565807 0-7.803658-7.803658-23.369465v-54.50108c-7.803658-15.565807-7.803658-23.327957-15.565808-46.697422z" fill="#8470FF" fill-opacity=".749" p-id="1219"></path></svg>