<?xml version="1.0" standalone="no"?><!DOCTYPE svg PUBLIC "-//W3C//DTD SVG 1.1//EN" "http://www.w3.org/Graphics/SVG/1.1/DTD/svg11.dtd"><svg t="1621564529681" class="icon" viewBox="0 0 1024 1024" version="1.1" xmlns="http://www.w3.org/2000/svg" p-id="1289" xmlns:xlink="http://www.w3.org/1999/xlink" width="200" height="200"><defs><style type="text/css"></style></defs><path d="M424.2 230.4c0.6 0.2 1.2 0.4 1.6 0.5L160.6 148c-2.9-0.6-6-0.9-9.2-0.9-24.5 0-44.4 19.9-44.4 44.4v634.8c0 24.6 19.9 44.5 44.4 44.5 3.2 0 6.2-0.4 9.2-0.9L432.4 785c17.9-9.2 30.1-27.9 30.1-49.3V283.2c-0.1-24.6-16.1-45.6-38.3-52.8z m-28.4 485.9l-222.1 59.2V242.3l222.1 59.2v414.8z m466.4-569.2c-3.2 0-6.2 0.4-9.2 0.9l-262 82c0.4-0.1 0.7-0.1 0.9-0.2-23.5 6.5-40.8 28-40.8 53.5v452.3c0 21.5 12.2 40.1 30.1 49.4l271.6 84.9c2.9 0.6 6.1 0.9 9.3 0.9 24.5 0 44.4-19.9 44.4-44.5V191.5c0.2-24.5-19.7-44.4-44.3-44.4z" fill="#8470FF" p-id="1290"></path></svg>