<?xml version="1.0" standalone="no"?><!DOCTYPE svg PUBLIC "-//W3C//DTD SVG 1.1//EN" "http://www.w3.org/Graphics/SVG/1.1/DTD/svg11.dtd"><svg t="1627541057004" class="icon" viewBox="0 0 1024 1024" version="1.1" xmlns="http://www.w3.org/2000/svg" p-id="2850" xmlns:xlink="http://www.w3.org/1999/xlink" width="32" height="32"><defs><style type="text/css">@font-face { font-family: feedback-iconfont; src: url("//at.alicdn.com/t/font_1031158_1uhr8ri0pk5.eot?#iefix") format("embedded-opentype"), url("//at.alicdn.com/t/font_1031158_1uhr8ri0pk5.woff2") format("woff2"), url("//at.alicdn.com/t/font_1031158_1uhr8ri0pk5.woff") format("woff"), url("//at.alicdn.com/t/font_1031158_1uhr8ri0pk5.ttf") format("truetype"), url("//at.alicdn.com/t/font_1031158_1uhr8ri0pk5.svg#iconfont") format("svg"); }
</style></defs><path d="M292.3 1023c-6.7 0-13.6-1.9-19.6-5.7-14.4-9.2-20.5-27.2-14.7-43.2l128.1-352.2H110c-14.7 0-28-8.9-33.7-22.5-5.6-13.6-2.5-29.3 7.9-39.7l547-547c14.3-14.3 37.3-14.3 51.6 0 14.3 14.3 14.3 37.3 0 51.6L198 548.9h240.2c11.9 0 23.1 5.8 29.9 15.6 6.9 9.7 8.5 22.2 4.4 33.4l-89.7 246.7 441.5-441.5H584c-20.2 0-36.5-16.3-36.5-36.5 0-20.1 16.3-36.5 36.5-36.5h328.2c14.7 0 28.1 8.9 33.7 22.5 5.6 13.6 2.5 29.3-7.9 39.7l-619.9 619.9c-6.9 7-16.2 10.8-25.8 10.8z m0 0" fill="#8470FF" p-id="2851"></path></svg>