<?xml version="1.0" standalone="no"?><!DOCTYPE svg PUBLIC "-//W3C//DTD SVG 1.1//EN" "http://www.w3.org/Graphics/SVG/1.1/DTD/svg11.dtd"><svg t="1627541051264" class="icon" viewBox="0 0 1024 1024" version="1.1" xmlns="http://www.w3.org/2000/svg" p-id="2720" xmlns:xlink="http://www.w3.org/1999/xlink" width="32" height="32"><defs><style type="text/css">@font-face { font-family: feedback-iconfont; src: url("//at.alicdn.com/t/font_1031158_1uhr8ri0pk5.eot?#iefix") format("embedded-opentype"), url("//at.alicdn.com/t/font_1031158_1uhr8ri0pk5.woff2") format("woff2"), url("//at.alicdn.com/t/font_1031158_1uhr8ri0pk5.woff") format("woff"), url("//at.alicdn.com/t/font_1031158_1uhr8ri0pk5.ttf") format("truetype"), url("//at.alicdn.com/t/font_1031158_1uhr8ri0pk5.svg#iconfont") format("svg"); }
</style></defs><path d="M943.543 782.629c0-3.658-3.657-3.658-3.657-7.315L837.486 665.6c-14.629-14.629-36.572-14.629-51.2 0-14.629 14.629-14.629 40.229 0 54.857l40.228 43.886H299.886c76.8-36.572 131.657-91.429 171.885-157.257 47.543-80.457 58.515-171.886 73.143-259.657 3.657-10.972 3.657-25.6 7.315-36.572C563.2 245.03 614.4 197.486 709.486 175.543c47.543-10.972 98.743-18.286 146.285-18.286 10.972 0 21.943-10.971 21.943-21.943 0-14.628-7.314-25.6-18.285-25.6S544.914 98.743 512 303.543c-3.657 10.971-3.657 25.6-7.314 36.571-25.6 157.257-47.543 307.2-248.686 394.972V193.829l43.886 43.885c14.628 14.629 40.228 14.629 54.857 0 14.628-14.628 14.628-36.571 0-51.2l-109.714-102.4c-3.658-7.314-14.629-10.971-25.6-10.971-7.315 0-14.629 3.657-18.286 7.314-3.657 0-3.657 3.657-7.314 3.657l-109.715 102.4c-14.628 14.629-14.628 36.572 0 51.2 14.629 14.629 40.229 14.629 54.857 0l43.886-40.228V768h-73.143c-21.943 0-36.571 14.629-36.571 36.571s14.628 36.572 36.571 36.572h73.143v73.143c0 21.943 14.629 36.571 36.572 36.571S256 936.23 256 914.286v-73.143h574.171l-43.885 43.886c-14.629 14.628-14.629 40.228 0 54.857 14.628 14.628 36.571 14.628 51.2 0l102.4-109.715c7.314-7.314 10.971-14.628 10.971-25.6v-3.657c0-3.657-3.657-10.971-7.314-18.285zM658.286 292.57c0 21.943 14.628 36.572 36.571 36.572s36.572-14.629 36.572-36.572S716.8 256 694.857 256s-36.571 14.629-36.571 36.571z m-73.143 146.286c0 21.943 14.628 36.572 36.571 36.572s36.572-14.629 36.572-36.572-14.629-36.571-36.572-36.571-36.571 14.628-36.571 36.571z m-182.857-73.143c21.943 0 36.571-14.628 36.571-36.571s-14.628-36.572-36.571-36.572-36.572 14.629-36.572 36.572 14.629 36.571 36.572 36.571z m0 109.715c-21.943 0-36.572 14.628-36.572 36.571s14.629 36.571 36.572 36.571 36.571-14.628 36.571-36.571-14.628-36.571-36.571-36.571zM512 621.714c0 21.943 14.629 36.572 36.571 36.572s36.572-14.629 36.572-36.572-14.629-36.571-36.572-36.571S512 599.77 512 621.714z m0-438.857c21.943 0 36.571-14.628 36.571-36.571S533.943 109.714 512 109.714s-36.571 14.629-36.571 36.572 14.628 36.571 36.571 36.571z" fill="#8470FF" p-id="2721"></path></svg>