<?xml version="1.0" standalone="no"?><!DOCTYPE svg PUBLIC "-//W3C//DTD SVG 1.1//EN" "http://www.w3.org/Graphics/SVG/1.1/DTD/svg11.dtd"><svg t="1627541039258" class="icon" viewBox="0 0 1024 1024" version="1.1" xmlns="http://www.w3.org/2000/svg" p-id="2459" xmlns:xlink="http://www.w3.org/1999/xlink" width="32" height="32"><defs><style type="text/css">@font-face { font-family: feedback-iconfont; src: url("//at.alicdn.com/t/font_1031158_1uhr8ri0pk5.eot?#iefix") format("embedded-opentype"), url("//at.alicdn.com/t/font_1031158_1uhr8ri0pk5.woff2") format("woff2"), url("//at.alicdn.com/t/font_1031158_1uhr8ri0pk5.woff") format("woff"), url("//at.alicdn.com/t/font_1031158_1uhr8ri0pk5.ttf") format("truetype"), url("//at.alicdn.com/t/font_1031158_1uhr8ri0pk5.svg#iconfont") format("svg"); }
</style></defs><path d="M155.7 755.3H255v111.5h49.5V755.3h96.2L278.2 229.1 155.7 755.3z m66.3-52.7l56.1-241.3 56.2 241.3H222zM521.4 79.4L399 605.6h97.6v112.1h49.5V605.6h97.7L521.4 79.4z m-56.2 473.5l56.2-241.3 56.1 241.3H465.2zM812.4 817.8v111.3h49.5V817.8h61.7l-91.4-392.5-91.4 392.5h71.6z m19.9-160.2l25 107.6h-50.1l25.1-107.6z" fill="#8470FF" p-id="2460"></path><path d="M3 15.6V1013h1019V15.6H3z m52.6 944.8V68.2h687.7L605.1 960.4H55.6z m913.7 0H658.4L796.6 68.2h172.7v892.2z" fill="#8470FF" p-id="2461"></path></svg>