<?xml version="1.0" standalone="no"?><!DOCTYPE svg PUBLIC "-//W3C//DTD SVG 1.1//EN" "http://www.w3.org/Graphics/SVG/1.1/DTD/svg11.dtd"><svg t="1621564566449" class="icon" viewBox="0 0 1024 1024" version="1.1" xmlns="http://www.w3.org/2000/svg" p-id="1503" xmlns:xlink="http://www.w3.org/1999/xlink" width="200" height="200"><defs><style type="text/css"></style></defs><path d="M200.8 98.2h622.5c28.6 0 51.9 23.2 51.9 51.9v103.7c0 28.6-23.2 51.9-51.9 51.9H200.8c-28.6 0-51.9-23.2-51.9-51.9V150.1c0-28.6 23.2-51.9 51.9-51.9z m121 51.9c-28.6 0-51.9 23.2-51.9 51.9s23.2 51.9 51.9 51.9c28.6 0 51.9-23.2 51.9-51.9s-23.3-51.9-51.9-51.9z m-121 259.4h622.5c28.6 0 51.9 23.2 51.9 51.9v103.7c0 28.6-23.2 51.9-51.9 51.9H200.8c-28.6 0-51.9-23.2-51.9-51.9V461.3c0-28.6 23.2-51.8 51.9-51.8z m121 51.8c-28.6 0-51.9 23.2-51.9 51.9 0 28.6 23.2 51.9 51.9 51.9 28.6 0 51.9-23.2 51.9-51.9 0-28.6-23.3-51.9-51.9-51.9z m-121 259.4h622.5c28.6 0 51.9 23.2 51.9 51.9v103.7c0 28.6-23.2 51.9-51.9 51.9H200.8c-28.6 0-51.9-23.2-51.9-51.9V772.6c0-28.7 23.2-51.9 51.9-51.9z m121 51.9c-28.6 0-51.9 23.2-51.9 51.9 0 28.6 23.2 51.9 51.9 51.9 28.6 0 51.9-23.2 51.9-51.9s-23.3-51.9-51.9-51.9z" fill="#8470FF" p-id="1504"></path></svg>