<?xml version="1.0" standalone="no"?><!DOCTYPE svg PUBLIC "-//W3C//DTD SVG 1.1//EN" "http://www.w3.org/Graphics/SVG/1.1/DTD/svg11.dtd"><svg t="1627541032770" class="icon" viewBox="0 0 1024 1024" version="1.1" xmlns="http://www.w3.org/2000/svg" p-id="2329" xmlns:xlink="http://www.w3.org/1999/xlink" width="32" height="32"><defs><style type="text/css">@font-face { font-family: feedback-iconfont; src: url("//at.alicdn.com/t/font_1031158_1uhr8ri0pk5.eot?#iefix") format("embedded-opentype"), url("//at.alicdn.com/t/font_1031158_1uhr8ri0pk5.woff2") format("woff2"), url("//at.alicdn.com/t/font_1031158_1uhr8ri0pk5.woff") format("woff"), url("//at.alicdn.com/t/font_1031158_1uhr8ri0pk5.ttf") format("truetype"), url("//at.alicdn.com/t/font_1031158_1uhr8ri0pk5.svg#iconfont") format("svg"); }
</style></defs><path d="M512 621.714286H292.571429c-21.942857 0-36.571429 14.628571-36.571429 36.571428v73.142857H109.714286c-21.942857 0-36.571429 14.628571-36.571429 36.571429v146.285714c0 21.942857 14.628571 36.571429 36.571429 36.571429s36.571429-14.628571 36.571428-36.571429v-109.714285h146.285715c21.942857 0 36.571429-14.628571 36.571428-36.571429v-73.142857h182.857143c21.942857 0 36.571429-14.628571 36.571429-36.571429s-14.628571-36.571429-36.571429-36.571428z m109.714286-219.428572h256c21.942857 0 36.571429-14.628571 36.571428-36.571428V109.714286c0-21.942857-14.628571-36.571429-36.571428-36.571429h-256c-21.942857 0-36.571429 14.628571-36.571429 36.571429v256c0 18.285714 14.628571 36.571429 36.571429 36.571428z m36.571428-256h182.857143v182.857143h-182.857143V146.285714z m-186.514285 596.114286c-3.657143-3.657143-7.314286-7.314286-10.971429-7.314286h-10.971429c-3.657143 0-3.657143 3.657143-7.314285 7.314286l-73.142857 76.8c-7.314286 7.314286-7.314286 14.628571 0 21.942857 7.314286 7.314286 14.628571 7.314286 21.942857 0l47.542857-51.2v146.285714c0 14.628571 7.314286 21.942857 18.285714 21.942858s18.285714-7.314286 18.285714-21.942858v-138.971428l43.885715 47.542857c3.657143 3.657143 10.971429 3.657143 10.971428 3.657143 3.657143 0 7.314286-3.657143 10.971429-3.657143 7.314286-7.314286 7.314286-14.628571 0-21.942857l-69.485714-80.457143zM438.857143 365.714286c-10.971429 0-21.942857 0-29.257143 3.657143l-32.914286-58.514286c36.571429-21.942857 65.828571-62.171429 65.828572-109.714286C438.857143 131.657143 380.342857 73.142857 310.857143 73.142857S182.857143 131.657143 182.857143 201.142857c0 47.542857 25.6 87.771429 62.171428 109.714286l-32.914285 58.514286c-7.314286 0-18.285714-3.657143-29.257143-3.657143-62.171429 0-109.714286 47.542857-109.714286 109.714285s47.542857 109.714286 109.714286 109.714286 109.714286-47.542857 109.714286-109.714286c0-36.571429-18.285714-69.485714-43.885715-87.771428l36.571429-62.171429c7.314286 3.657143 14.628571 3.657143 25.6 3.657143 10.971429 0 18.285714 0 29.257143-3.657143l36.571428 62.171429C347.428571 405.942857 329.142857 438.857143 329.142857 475.428571c0 62.171429 47.542857 109.714286 109.714286 109.714286s109.714286-47.542857 109.714286-109.714286-47.542857-109.714286-109.714286-109.714285z m-256 146.285714c-21.942857 0-36.571429-14.628571-36.571429-36.571429s14.628571-36.571429 36.571429-36.571428 36.571429 14.628571 36.571428 36.571428-14.628571 36.571429-36.571428 36.571429z m128-256C281.6 256 256 230.4 256 201.142857S281.6 146.285714 310.857143 146.285714s54.857143 25.6 54.857143 54.857143S340.114286 256 310.857143 256z m128 256c-21.942857 0-36.571429-14.628571-36.571429-36.571429s14.628571-36.571429 36.571429-36.571428 36.571429 14.628571 36.571428 36.571428-14.628571 36.571429-36.571428 36.571429z m438.857143 109.714286h-256c-21.942857 0-36.571429 14.628571-36.571429 36.571428v256c0 21.942857 14.628571 36.571429 36.571429 36.571429h256c21.942857 0 36.571429-14.628571 36.571428-36.571429v-256c0-21.942857-14.628571-36.571429-36.571428-36.571428z m-219.428572 73.142857h84.114286L658.285714 778.971429V694.857143z m182.857143 182.857143h-80.457143l80.457143-84.114286V877.714286z m0-138.971429L705.828571 877.714286H658.285714v-43.885715l138.971429-138.971428H841.142857v43.885714z m73.142857-263.314286h-292.571428c-18.285714 0-36.571429 14.628571-36.571429 36.571429s18.285714 36.571429 36.571429 36.571429h292.571428c18.285714 0 36.571429-14.628571 36.571429-36.571429s-18.285714-36.571429-36.571429-36.571429z" fill="#8470FF" p-id="2330"></path></svg>